<?xml version="1.0" encoding="UTF-8" standalone="no"?>
<!-- Created with Inkscape (http://www.inkscape.org/) -->

<svg
   width="210mm"
   height="297mm"
   viewBox="0 0 210 297"
   version="1.1"
   id="svg1"
   inkscape:version="1.3.2 (091e20e, 2023-11-25, custom)"
   sodipodi:docname="Weidmann Yellow Logo.svg"
   xmlns:inkscape="http://www.inkscape.org/namespaces/inkscape"
   xmlns:sodipodi="http://sodipodi.sourceforge.net/DTD/sodipodi-0.dtd"
   xmlns="http://www.w3.org/2000/svg"
   xmlns:svg="http://www.w3.org/2000/svg">
  <sodipodi:namedview
     id="namedview1"
     pagecolor="#ffffff"
     bordercolor="#000000"
     borderopacity="0.25"
     inkscape:showpageshadow="2"
     inkscape:pageopacity="0.0"
     inkscape:pagecheckerboard="0"
     inkscape:deskcolor="#d1d1d1"
     inkscape:document-units="mm"
     inkscape:zoom="0.69219276"
     inkscape:cx="396.56583"
     inkscape:cy="561.25984"
     inkscape:window-width="1920"
     inkscape:window-height="991"
     inkscape:window-x="-9"
     inkscape:window-y="-9"
     inkscape:window-maximized="1"
     inkscape:current-layer="layer1" />
  <defs
     id="defs1" />
  <g
     inkscape:label="Layer 1"
     inkscape:groupmode="layer"
     id="layer1">
    <path
       style="fill:#ffff00;fill-opacity:1;stroke-width:0.270285"
       d="m 71.702077,148.26458 v -29.73124 h 33.109793 33.1098 v 29.73124 29.73125 h -33.1098 -33.109793 z m 27.631287,24.03711 c 1.373976,-1.72147 2.217306,-2.50015 3.446126,-3.18194 1.44337,-0.80083 1.62696,-0.99694 1.62696,-1.73795 0,-0.64195 -0.2815,-1.0974 -1.21628,-1.96792 -1.73417,-1.61493 -1.76464,-1.27621 1.27378,-14.16099 l 1.68545,-7.14735 1.27859,9.57991 c 0.70323,5.26894 1.28409,9.73065 1.2908,9.91489 0.007,0.18425 -0.59594,1.00652 -1.33922,1.82728 -0.74328,0.82076 -1.35142,1.71377 -1.35142,1.98447 0,0.29314 0.54207,0.84344 1.34033,1.36069 0.73718,0.47768 2.70846,1.9577 4.38062,3.28893 1.67216,1.33124 3.13125,2.42043 3.24243,2.42043 0.11118,0 0.71271,-0.85941 1.33673,-1.9098 1.57551,-2.65198 3.65131,-4.09514 6.41829,-4.46219 1.34749,-0.17875 1.39063,-0.21144 1.39063,-1.05375 0,-0.91784 -0.41224,-1.41692 -1.75684,-2.12687 -1.41439,-0.74679 -1.54264,-0.89819 -1.75788,-2.07525 -0.14931,-0.81649 -0.064,-1.76712 0.29256,-3.25994 0.77268,-3.23509 4.54973,-15.90621 5.14969,-17.27601 0.59207,-1.35176 1.80718,-2.72678 3.1403,-3.55356 1.54238,-0.95656 1.18885,-1.85539 -1.28418,-3.26493 -1.64716,-0.93884 -2.11554,-1.51452 -2.8239,-3.4708 l -0.60439,-1.66918 -1.11422,1.99255 c -1.59656,2.85511 -1.95188,3.22596 -3.45495,3.60594 -1.29085,0.32633 -1.32923,0.36507 -1.40847,1.42192 -0.0771,1.0287 -0.0184,1.12342 1.10557,1.78208 0.9372,0.54924 1.33413,1.02565 1.88601,2.26367 l 0.69901,1.56802 -1.19702,4.86512 c -1.49953,6.0947 -3.08521,13.78406 -3.09604,15.01351 -0.0247,2.80382 -1.1512,-2.28069 -2.95859,-13.35364 -1.32476,-8.11608 -1.32681,-8.13861 -0.84154,-9.22246 0.56949,-1.27194 1.22323,-1.89154 2.25422,-2.13649 0.55222,-0.1312 0.74328,-0.34133 0.74328,-0.81746 0,-0.55489 -0.35713,-0.79157 -2.66182,-1.76408 -2.65035,-1.11837 -3.57349,-1.82442 -4.88165,-3.73371 -0.33103,-0.48314 -0.70045,-0.87843 -0.82095,-0.87843 -0.1205,0 -0.37551,0.39529 -0.56668,0.87843 -0.19117,0.48313 -0.54041,1.10542 -0.77607,1.38288 -0.74924,0.88208 -2.81514,2.16797 -4.21246,2.62198 -1.11268,0.36153 -1.36624,0.56284 -1.43531,1.13953 -0.0599,0.49977 0.10337,0.82314 0.56977,1.12873 0.35951,0.23556 0.87197,0.91241 1.13878,1.5041 0.46277,1.02625 0.46394,1.20338 0.0252,3.8456 -0.63847,3.84545 -3.1934,15.6083 -3.39017,15.6083 -0.0888,0 -0.839861,-4.08889 -1.669015,-9.08642 l -1.507556,-9.08641 0.836718,-1.2342 c 0.561854,-0.82877 1.147474,-1.33674 1.78271,-1.54635 0.790803,-0.26094 0.945993,-0.44025 0.945993,-1.093 0,-0.76882 -0.0496,-0.79421 -3.223045,-1.64779 l -3.223046,-0.86694 -1.777208,-1.87931 c -2.172608,-2.29742 -2.924728,-2.58293 -6.403489,-2.43078 l -2.538798,0.11104 -1.24696,1.20373 c -2.277563,2.1986 -2.80475,3.1155 -2.80475,4.87805 0,2.07709 0.687932,2.93926 2.509046,3.14452 1.159785,0.13073 1.274929,0.0926 1.274929,-0.42261 0,-0.31147 -0.374248,-0.99256 -0.831662,-1.51353 -0.929053,-1.05813 -0.901073,-1.55433 0.151696,-2.69029 0.812798,-0.87703 2.313094,-0.96471 3.096811,-0.18099 0.288671,0.28867 0.760449,1.2921 1.0484,2.22984 0.715077,2.32874 2.916614,13.38712 2.706897,13.59683 -0.09294,0.0929 -0.820333,0.23399 -1.616427,0.31344 l -1.447448,0.14446 -0.878422,-1.48714 c -0.483132,-0.81792 -0.878425,-1.73863 -0.878425,-2.046 0,-0.30737 0.365985,-1.48018 0.8133,-2.60623 0.644798,-1.62318 0.753015,-2.16 0.522333,-2.59104 -0.160033,-0.29902 -0.482838,-0.50593 -0.717349,-0.4598 -0.234508,0.0461 -1.378162,1.78056 -2.54145,3.85429 l -2.115068,3.77041 0.145044,2.0407 c 0.07978,1.12238 0.399357,2.87371 0.710184,3.89183 0.532749,1.74505 0.53947,1.89461 0.117229,2.60941 -0.246353,0.41704 -0.447913,1.19559 -0.447913,1.73012 v 0.97186 H 83.0607 c 2.079541,0 2.179828,-0.0286 2.432556,-0.69331 0.390609,-1.02737 0.319704,-2.43734 -0.14183,-2.82038 -0.579237,-0.48073 -0.504394,-1.95412 0.134072,-2.63943 0.510397,-0.54785 0.895625,-0.66171 3.303257,-0.97639 1.175803,-0.15367 0.99246,-0.70906 1.952075,5.91323 l 0.626657,4.32455 -0.710618,1.05698 c -0.480475,0.71467 -1.060751,1.17593 -1.791753,1.42425 -2.012018,0.68349 -2.318419,1.81588 -0.608137,2.24755 1.89107,0.4773 2.186768,0.66666 5.480582,3.50976 1.74063,1.50245 3.302453,2.68779 3.470714,2.6341 0.168262,-0.0537 1.124556,-1.12329 2.125091,-2.37687 z"
       id="path7" />
    <path
       style="fill:#000000;stroke-width:1.44468"
       d="m 354.0259,648.95631 c -7.38711,-5.94594 -15.41412,-11.37952 -17.8378,-12.07463 -6.35879,-1.82367 -6.29906,-4.11706 0.20237,-7.77107 9.3115,-5.23336 9.83499,-7.37993 6.93417,-28.4336 -1.3822,-10.03174 -2.89248,-18.85339 -3.35617,-19.60367 -1.45634,-2.3564 -15.19781,-0.24135 -17.32406,2.66647 -2.36287,3.23142 -2.47976,8.45318 -0.26847,11.99401 0.92068,1.47425 1.22921,4.35229 0.69481,6.48148 -0.89362,3.56048 -1.51795,3.82976 -8.87944,3.82976 -8.54632,0 -9.37209,-1.00725 -6.3191,-7.70783 1.22338,-2.68503 1.05364,-5.90806 -0.72235,-13.71649 -3.68946,-16.22134 -3.26988,-18.68879 5.81743,-34.21042 5.75472,-9.82939 8.5894,-13.45121 9.67677,-12.36383 1.08738,1.08737 0.7663,3.68355 -1.09607,8.86261 -3.43891,9.56329 -3.32243,13.03365 0.65339,19.46666 3.07438,4.97445 3.65531,5.26964 8.968,4.55706 3.12438,-0.41906 6.03534,-1.11659 6.46881,-1.55007 1.1479,-1.1479 -8.87104,-49.78042 -11.55883,-56.10724 -2.7804,-6.5448 -7.93273,-8.39968 -13.39338,-4.82172 -5.34594,3.50279 -5.86775,6.38 -2.28579,12.60378 l 3.18257,5.52985 h -3.65484 c -5.5679,0 -9.43359,-4.77145 -9.43359,-11.64395 0,-5.07883 0.99659,-6.91897 7.43298,-13.7245 l 7.43299,-7.85929 h 11.13115 c 9.94815,0 11.73594,0.4381 16.82169,4.1222 3.12979,2.26721 6.74302,5.72851 8.02941,7.69178 1.79048,2.73263 5.24933,4.33845 14.7518,6.84874 9.89762,2.61467 12.41293,3.81739 12.41293,5.93536 0,1.46092 -1.30065,3.06903 -2.89034,3.57357 -1.58968,0.50455 -4.55029,3.09368 -6.57913,5.75363 l -3.6888,4.83626 5.85679,33.91817 c 3.22124,18.65499 5.8568,34.44272 5.8568,35.08383 0,0.64111 0.64158,0.52407 1.42574,-0.26009 1.72316,-1.72315 12.69606,-51.96114 13.93196,-63.78565 0.79824,-7.63713 0.5303,-8.82787 -2.90513,-12.91065 -2.08146,-2.47367 -3.78447,-5.20702 -3.78447,-6.0741 0,-0.86708 3.73812,-3.47103 8.30694,-5.78655 8.14294,-4.12693 12.98622,-8.3144 15.84908,-13.70303 1.31092,-2.46748 1.78988,-2.23791 5.51188,2.64189 2.65082,3.4754 8.02739,7.33079 15.3755,11.02535 6.21461,3.12464 11.27425,6.1615 11.24364,6.74856 -0.0306,0.58706 -2.14008,2.37883 -4.68771,3.98169 -8.89014,5.59332 -9.09835,7.67522 -3.94813,39.47856 5.30331,32.74871 10.12635,56.56801 11.45414,56.56801 0.50647,0 2.04379,-6.58063 3.41626,-14.62363 1.37248,-8.043 5.17449,-25.6978 8.44892,-39.23288 l 5.95352,-24.60924 -3.01597,-6.20777 c -1.65879,-3.41428 -4.66432,-7.28781 -6.67896,-8.60786 -5.41097,-3.5454 -4.91132,-8.91705 1.06155,-11.41268 5.42655,-2.26736 7.85489,-4.80069 12.90342,-13.46132 l 3.6097,-6.19235 2.5505,6.67841 c 2.02512,5.30269 4.15286,7.70343 10.32909,11.65431 4.27823,2.73675 7.77858,5.46794 7.77858,6.06933 0,0.60138 -3.27056,4.31482 -7.26793,8.25207 -7.96222,7.8425 -9.08866,10.6508 -21.42326,53.40948 -9.58343,33.22157 -9.60035,37.40793 -0.17519,43.35776 5.70054,3.59859 7.79155,8.88547 3.94558,9.97591 -0.99322,0.2816 -4.7282,1.31021 -8.29997,2.2858 -6.43098,1.75654 -14.39485,8.52775 -20.95489,17.81669 l -2.88936,4.09132 -15.47843,-11.72984 c -8.51314,-6.45143 -15.8824,-12.38348 -16.37613,-13.18236 -0.49373,-0.79887 1.4465,-4.31328 4.31163,-7.80979 l 5.20932,-6.35729 -4.39548,-33.67094 c -4.53253,-34.72073 -5.70817,-42.16641 -6.52838,-41.3462 -0.57177,0.57177 -14.41423,60.26017 -15.76319,67.97058 -1.03477,5.91451 0.42661,9.79641 5.90157,15.67654 4.35048,4.67243 3.55929,6.78421 -4.43703,11.84307 -3.49134,2.20877 -8.19681,6.3576 -10.4566,9.21962 -9.62632,12.19168 -7.01505,12.18548 -22.08901,0.0524 z"
       id="path1"
       transform="scale(0.26458333)" />
  </g>
</svg>
